<?xml version="1.0" encoding="UTF-8"?>
<svg xmlns="http://www.w3.org/2000/svg" xmlns:xlink="http://www.w3.org/1999/xlink" width="60px" height="60px" viewBox="0 0 60 60" version="1.1">
<g id="surface1">
<path style=" stroke:none;fill-rule:nonzero;fill:rgb(0%,0%,0%);fill-opacity:1;" d="M 50.695312 20.007812 L 48.75 20.007812 L 48.75 16.539062 C 48.75 16.074219 48.375 15.699219 47.910156 15.699219 L 46.667969 15.699219 L 46.667969 12.226562 C 46.667969 11.765625 46.292969 11.390625 45.828125 11.390625 L 42.148438 11.390625 L 42.148438 4.960938 C 42.148438 4.496094 41.773438 4.121094 41.3125 4.121094 L 36.585938 4.121094 L 36.585938 3.527344 C 36.585938 3.230469 36.429688 2.957031 36.175781 2.804688 L 31.625 0.117188 C 31.496094 0.0390625 31.347656 0 31.199219 0 L 28.800781 0 C 28.652344 0 28.503906 0.0390625 28.375 0.117188 L 23.824219 2.804688 C 23.570312 2.957031 23.414062 3.230469 23.414062 3.527344 L 23.414062 4.121094 L 18.6875 4.121094 C 18.226562 4.121094 17.851562 4.496094 17.851562 4.960938 L 17.851562 11.390625 L 14.171875 11.390625 C 13.707031 11.390625 13.332031 11.765625 13.332031 12.226562 L 13.332031 15.699219 L 12.089844 15.699219 C 11.625 15.699219 11.25 16.074219 11.25 16.539062 L 11.25 20.007812 L 9.304688 20.007812 C 8.84375 20.007812 8.46875 20.382812 8.46875 20.847656 C 8.46875 21.308594 8.84375 21.683594 9.304688 21.683594 L 10.925781 21.683594 L 10.925781 59.164062 C 10.925781 59.625 11.300781 60 11.761719 60 L 22.335938 60 C 22.800781 60 23.175781 59.625 23.175781 59.164062 L 23.175781 36.457031 L 23.472656 36.457031 C 23.9375 36.457031 24.3125 36.085938 24.3125 35.621094 C 24.3125 35.160156 23.9375 34.785156 23.472656 34.785156 L 23.175781 34.785156 L 23.175781 33.519531 C 23.175781 29.757812 26.238281 26.695312 30 26.695312 C 31.824219 26.695312 33.539062 27.40625 34.828125 28.695312 C 36.117188 29.984375 36.824219 31.695312 36.824219 33.519531 L 36.824219 34.785156 L 36.527344 34.785156 C 36.0625 34.785156 35.6875 35.160156 35.6875 35.621094 C 35.6875 36.085938 36.0625 36.457031 36.527344 36.457031 L 36.824219 36.457031 L 36.824219 59.164062 C 36.824219 59.625 37.199219 60 37.664062 60 L 48.238281 60 C 48.699219 60 49.074219 59.625 49.074219 59.164062 L 49.074219 21.683594 L 50.695312 21.683594 C 51.15625 21.683594 51.53125 21.308594 51.53125 20.847656 C 51.53125 20.382812 51.15625 20.007812 50.695312 20.007812 Z M 25.085938 4.003906 L 29.03125 1.675781 L 30.96875 1.675781 L 34.914062 4.003906 L 34.914062 4.121094 L 25.085938 4.121094 Z M 19.523438 5.796875 L 40.476562 5.796875 L 40.476562 11.390625 L 19.523438 11.390625 Z M 15.007812 13.066406 L 44.992188 13.066406 L 44.992188 15.699219 L 15.007812 15.699219 Z M 12.925781 17.375 L 47.074219 17.375 L 47.074219 20.007812 L 12.925781 20.007812 Z M 12.597656 58.324219 L 12.597656 43.671875 L 21.5 43.671875 L 21.5 58.324219 Z M 21.5 42 L 12.597656 42 L 12.597656 36.457031 L 21.5 36.457031 Z M 36.011719 27.511719 C 34.40625 25.90625 32.269531 25.019531 30 25.019531 C 25.3125 25.019531 21.5 28.835938 21.5 33.519531 L 21.5 34.785156 L 12.597656 34.785156 L 12.597656 21.683594 L 47.402344 21.683594 L 47.402344 34.785156 L 38.5 34.785156 L 38.5 33.519531 C 38.5 31.25 37.617188 29.113281 36.011719 27.511719 Z M 47.402344 36.457031 L 47.402344 42 L 38.5 42 L 38.5 36.457031 Z M 38.5 58.324219 L 38.5 43.671875 L 47.402344 43.671875 L 47.402344 58.324219 Z M 38.5 58.324219 "/>
<path style=" stroke:none;fill-rule:nonzero;fill:rgb(0%,0%,0%);fill-opacity:1;" d="M 17.050781 25.507812 C 15.523438 25.507812 14.28125 26.75 14.28125 28.277344 C 14.28125 29.804688 15.523438 31.046875 17.050781 31.046875 C 18.578125 31.046875 19.820312 29.804688 19.820312 28.277344 C 19.820312 26.75 18.578125 25.507812 17.050781 25.507812 Z M 17.050781 29.375 C 16.445312 29.375 15.953125 28.882812 15.953125 28.277344 C 15.953125 27.675781 16.445312 27.183594 17.050781 27.183594 C 17.652344 27.183594 18.144531 27.675781 18.144531 28.277344 C 18.144531 28.882812 17.652344 29.375 17.050781 29.375 Z M 17.050781 29.375 "/>
<path style=" stroke:none;fill-rule:nonzero;fill:rgb(0%,0%,0%);fill-opacity:1;" d="M 21.902344 6.53125 C 20.765625 6.53125 19.839844 7.457031 19.839844 8.59375 C 19.839844 9.730469 20.765625 10.65625 21.902344 10.65625 C 23.039062 10.65625 23.964844 9.730469 23.964844 8.59375 C 23.964844 7.457031 23.039062 6.53125 21.902344 6.53125 Z M 21.902344 8.980469 C 21.6875 8.980469 21.515625 8.808594 21.515625 8.59375 C 21.515625 8.378906 21.6875 8.207031 21.902344 8.207031 C 22.117188 8.207031 22.289062 8.378906 22.289062 8.59375 C 22.289062 8.808594 22.117188 8.980469 21.902344 8.980469 Z M 21.902344 8.980469 "/>
<path style=" stroke:none;fill-rule:nonzero;fill:rgb(0%,0%,0%);fill-opacity:1;" d="M 38.097656 6.53125 C 36.960938 6.53125 36.035156 7.457031 36.035156 8.59375 C 36.035156 9.730469 36.960938 10.65625 38.097656 10.65625 C 39.234375 10.65625 40.160156 9.730469 40.160156 8.59375 C 40.160156 7.457031 39.234375 6.53125 38.097656 6.53125 Z M 38.097656 8.980469 C 37.886719 8.980469 37.710938 8.808594 37.710938 8.59375 C 37.710938 8.378906 37.886719 8.207031 38.097656 8.207031 C 38.3125 8.207031 38.484375 8.378906 38.484375 8.59375 C 38.484375 8.808594 38.3125 8.980469 38.097656 8.980469 Z M 38.097656 8.980469 "/>
<path style=" stroke:none;fill-rule:nonzero;fill:rgb(0%,0%,0%);fill-opacity:1;" d="M 42.949219 31.046875 C 44.476562 31.046875 45.71875 29.804688 45.71875 28.277344 C 45.71875 26.75 44.476562 25.507812 42.949219 25.507812 C 41.421875 25.507812 40.179688 26.75 40.179688 28.277344 C 40.179688 29.804688 41.421875 31.046875 42.949219 31.046875 Z M 42.949219 27.183594 C 43.554688 27.183594 44.046875 27.675781 44.046875 28.277344 C 44.046875 28.882812 43.554688 29.375 42.949219 29.375 C 42.347656 29.375 41.855469 28.882812 41.855469 28.277344 C 41.855469 27.675781 42.347656 27.183594 42.949219 27.183594 Z M 42.949219 27.183594 "/>
</g>
</svg>
