<svg xmlns="http://www.w3.org/2000/svg" xmlns:xlink="http://www.w3.org/1999/xlink" version="1.1" x="0px" y="0px" viewBox="0 0 72 90" style="enable-background:new 0 0 72 72;" xml:space="preserve"><g><g><path d="M67,66.7419205h-1.0639648V47.6034927l1.7700195-3.7399902c0.0600586-0.1401367,0.0898438-0.2800293,0.0898438-0.4301758    v-4.5c0-0.5498047-0.4499512-1-1-1h-0.5898438c0-5.7959938,0.0400467-6.6398735-0.0100098-6.7399902l1.6398926-3.4599609    c0.0600586-0.1298828,0.1000977-0.2800293,0.1000977-0.4299316v-4.5c0-0.5500488-0.4501953-1-1-1h-1.3100586v-4.5673828h1.2568359    c0.5522461,0,1-0.4477539,1-1s-0.4477539-1-1-1h-0.5878906c0.0002441-0.0009766,0.0007324-0.001709,0.0009766-0.0026855    c0.4599609-2.0300293-0.1499023-4.6298828-3.7998047-7.4499516c-0.2800293-0.2199707-0.5800781-0.4399414-0.9101563-0.6699219    c-0.0009766-0.0007324-0.0024414-0.0014648-0.003418-0.0024414V4.2570567c0-0.5522461-0.4477539-1-1-1s-1,0.4477539-1,1v2.8588867    c-0.3183594,0.2290039-0.6274414,0.4384766-0.9064941,0.6574707c-3.670166,2.8300786-4.2800293,5.4299321-3.8000488,7.4599614    c0.0002441,0.0009766,0.0007324,0.001709,0.0009766,0.0026855h-0.5942383c-0.5522461,0-1,0.4477539-1,1s0.4477539,1,1,1h1.253418    v4.5673828h-1.300293c-0.5598145,0-1,0.4499512-1,1v4.5c0,0.3259964,0.1293449,0.4899521,0.1901855,0.6499023H19.2758789    c0.0411224-0.1081123,0.1901855-0.3435974,0.1901855-0.6499023v-4.5c0-0.5500488-0.4401855-1-1-1h-1.3000488v-4.5673828h1.2548828    c0.5522461,0,1-0.4477539,1-1s-0.4477539-1-1-1h-0.5959473c0.0002441-0.0009766,0.0007324-0.001709,0.0009766-0.0026855    c0.7976646-3.4454937-1.8990164-6.0879812-4.7053223-8.1264648V4.2570567c0-0.5522461-0.4477539-1-1-1s-1,0.4477539-1,1V7.120338    c-0.0014648,0.0009766-0.0031738,0.0019531-0.0046387,0.0031738c-2.847084,1.9566922-5.4918761,4.7490497-4.7099609,8.1098633    c0.0002441,0.0009766,0.0007324,0.001709,0.0009766,0.0026855H5.8208008c-0.5522461,0-1,0.4477539-1,1s0.4477539,1,1,1h1.255127    v4.5673828H5.7758789c-0.5598145,0-1,0.4499512-1,1v4.5c0,0.1499023,0.0300293,0.3000488,0.0900879,0.4299316l1.6501465,3.4599609    c-0.0512476,0.1000538-0.0102539,0.9108582-0.0102539,6.7399902h-0.869873c-0.5500488,0-1,0.4501953-1,1v4.5    c0,0.1501465,0.0300293,0.3000488,0.0998535,0.4301758l1.7700195,3.7199707v19.1584473H5c-0.5522461,0-1,0.4477539-1,1    s0.4477539,1,1,1c34.9486847,0.0006714,31.0778275,0.0019226,62,0c0.5522461,0,1-0.4477539,1-1    S67.5522461,66.7419205,67,66.7419205z M6.7758789,23.8034439c1.7711582,0,7.8864737,0,10.6901855,0v3.2800293    c-0.1399479,0.296793-1.54214,3.2705097-1.4899902,3.1599121c-0.2630892,0-8.0651646,0-7.7001953,0l-1.5-3.1599121V23.8034439z     M53.0959473,39.0134048v2.8000488H19.3359375v-2.8000488H53.0959473z M55.2358398,27.0834732v-3.2800293    c0.8579254,0,8.0034218,0,10.7001953,0v3.2800293l-1.5,3.1599121c-0.1837997,0-8.1333542,0-7.7001953,0    C56.6882362,30.1431007,55.1387329,26.8789043,55.2358398,27.0834732z M65.7958984,39.9333267v3.2800293l-1.4899902,3.1501465    c-0.1880264,0-7.850872,0-7.7099609,0c-2.8081093-5.9182205,0.2299728,0.4844551-1.5-3.1601563    c0-0.8088341,0-2.4360085,0-3.2700195C58.6653061,39.9333267,62.2354774,39.9333267,65.7958984,39.9333267z     M22.2558594,60.0334244c1.3394394,0.0638313,2.3100586,1.2000542,2.3100586,2.4299316v2.4499512    c0,0.3400879-0.2797852,0.6201172-0.6298828,0.6201172h-3.6101074c-0.3498535,0-0.6298828-0.2800293-0.6298828-0.6201172    V62.593483C19.6960449,61.1833267,20.8459473,59.963356,22.2558594,60.0334244z M19.6960449,57.4035416V55.093483    c0-1.4101563,1.1499023-2.6401367,2.5598145-2.5600586c1.3834114,0.0659256,2.3100586,1.2405891,2.3100586,2.4199219v2.4501953    c0,0.3498535-0.2797852,0.6298828-0.6298828,0.6298828h-3.6101074    C19.9760742,58.0334244,19.6960449,57.7533951,19.6960449,57.4035416z M24.565918,49.9035416    c0,0.3398438-0.2797852,0.619873-0.6298828,0.619873h-3.6101074c-0.3498535,0-0.6298828-0.2800293-0.6298828-0.619873v-2.3200684    c0-1.4099121,1.1499023-2.630127,2.5598145-2.5600586c1.3394394,0.0638313,2.3100586,1.2000542,2.3100586,2.4299316V49.9035416z     M52.1359863,58.0334244h-3.6101074c-0.3498535,0-0.6298828-0.2800293-0.6298828-0.6298828V55.093483    c0-1.4101563,1.1499023-2.6401367,2.5600586-2.5600586c1.3272095,0.0632744,2.3100586,1.1613007,2.3100586,2.4199219v2.4501953    C52.7661133,57.7533951,52.4858398,58.0334244,52.1359863,58.0334244z M52.7661133,62.463356v2.4499512    c0,0.3400879-0.2802734,0.6201172-0.630127,0.6201172h-3.6101074c-0.3498535,0-0.6298828-0.2800293-0.6298828-0.6201172V62.593483    c0-1.4101563,1.1499023-2.630127,2.5600586-2.5600586C51.7426109,60.0947609,52.7661133,61.1582069,52.7661133,62.463356z     M52.1359863,50.5234146h-3.6101074c-0.3498535,0-0.6298828-0.2800293-0.6298828-0.619873v-2.3200684    c0-1.4099121,1.1499023-2.630127,2.5600586-2.5600586c1.2881279,0.061409,2.3100586,1.1262703,2.3100586,2.4299316v2.4501953    C52.7661133,50.2433853,52.4858398,50.5234146,52.1359863,50.5234146z M57.0361328,48.5334244h6.8999023v18.1599121h-6.8999023    V48.5334244z M56.9660645,37.9333267c0-0.1798401,0-5.8394012,0-5.6899414c0.1563644,0,7.4891357,0,7.2399902,0v5.6899414    C61.4832306,37.9333267,58.4250603,37.9333267,56.9660645,37.9333267z M8.5058594,32.2433853c0.1729851,0,7.495039,0,7.2299805,0    c0,0.1626587,0,5.9333916,0,5.6899414c-0.2300873,0-7.3729191,0-7.2299805,0V32.2433853z M6.6359863,39.9333267    c0.2358813,0,11.1475086,0,10.6999512,0c0,1.3951988,0,2.2300644,0,3.2800293    c-0.047514,0.1003265-1.117506,2.3626022-1.4899902,3.1501465c-0.4605494,0-7.9742084,0-7.7099609,0l-1.5-3.1601563V39.9333267z     M8.5058594,48.5334244h6.9301758v18.1599121H8.5058594V48.5334244z M29.565918,56.9733658    c0-2.7199707,1.3901367-5.1298828,3.4399414-5.9899902c0.7489052-0.2476234,2.2158508-0.9990387,2.9902344-1.7199707    c1.0119629,0.9265175,2.8791809,1.7099609,2.9799805,1.7099609c2.0600586,0.8701172,3.4499512,3.2800293,3.4499512,6v9.7685547    H29.565918V56.9733658z M57.5361328,17.5033951l6.0898438,0.0200195v4.2800293h-6.0898438V17.5033951z M54.3859863,29.9533463    l0.5900879,1.2399902c-0.0502052,0.1004086-0.0100098,0.9699974-0.0100098,5.8200684h-2.4121094v-2.7800293    c0-1.6018944-1.2715836-2.967886-2.8916016-3.0422363c-1.7648926-0.0932617-3.2070313,1.4423828-3.2070313,3.2072754v2.6149902    h-2.7495117v-2.7800293c0-1.6014671-1.2718277-2.9679108-2.8918457-3.0422363    c-1.7648926-0.0932617-3.2067871,1.4423828-3.2067871,3.2072754v2.6149902h-2.7497559v-2.7800293    c0-1.6018791-1.2715836-2.9679108-2.8916016-3.0422363c-1.7648926-0.0932617-3.2070313,1.4423828-3.2070313,3.2072754v2.6149902    h-2.7495117v-2.7800293c0-1.6015587-1.2715836-2.9679108-2.8916016-3.0422363    c-1.7651367-0.0932617-3.2070313,1.4423828-3.2070313,3.2072754v2.6149902h-2.1748047v-5.8100586l0.5900879-1.25H54.3859863z     M9.0759277,17.5033951l6.0900879,0.0200195v4.2800293H9.0759277V17.5033951z"/><path d="M15.1660156,28.1833267c0.5380335,0,1-0.4291325,1-1v-1.829834c0-0.5585556-0.4619675-1-1-1c-0.5378151,0-1,0.4412556-1,1    v1.829834C14.1660156,27.7512531,14.6222305,28.1833267,15.1660156,28.1833267z"/><path d="M12.0258789,28.1833267c0.5500488,0,1-0.4399414,1-1v-1.829834c0-0.5585556-0.4619675-1-1-1c-0.5304985,0-1,0.4345665-1,1    v1.829834C11.0258789,27.7433853,11.4760742,28.1833267,12.0258789,28.1833267z"/><path d="M9.8959961,27.1833267v-1.829834c0-0.5585556-0.4619675-1-1-1c-0.5378151,0-1,0.4412556-1,1v1.829834    c0,0.5600586,0.4499512,1,1,1S9.8959961,27.7433853,9.8959961,27.1833267z"/><path d="M15.1660156,44.3034439c0.5406895,0,1-0.4384651,1-1c0-0.1041412,0-1.9733391,0-1.8300781c0-0.5656586-0.472703-1-1-1    c-0.5600586,0-1,0.4501953-1,1v1.8300781C14.1660156,43.8159027,14.5844107,44.3034439,15.1660156,44.3034439z"/><path d="M12.0258789,44.3034439c0.5500488,0,1-0.4499512,1-1v-1.8300781c0-0.5498047-0.4499512-1-1-1    c-0.5498047,0-1,0.4501953-1,1v1.8300781C11.0258789,43.8534927,11.4760742,44.3034439,12.0258789,44.3034439z"/><path d="M8.8959961,44.3034439c0.5500488,0,1-0.4499512,1-1v-1.8300781c0-0.5498047-0.4499512-1-1-1s-1,0.4501953-1,1v1.8300781    C7.8959961,43.8534927,8.3459473,44.3034439,8.8959961,44.3034439z"/><path d="M63.6259766,28.1833267c0.5500488,0,1-0.4399414,1-1v-1.829834c0-0.5585556-0.4619675-1-1-1c-0.5378151,0-1,0.4412556-1,1    v1.829834C62.6259766,27.7433853,63.0759277,28.1833267,63.6259766,28.1833267z"/><path d="M60.4858398,28.1833267c0.5600586,0,1-0.4399414,1-1v-1.829834c0-0.5595131-0.4629211-1-1-1c-0.5302734,0-1,0.4344864-1,1    v1.829834C59.4858398,27.7433853,59.9360352,28.1833267,60.4858398,28.1833267z"/><path d="M58.355957,27.1833267v-1.829834c0-0.5585556-0.4619675-1-1-1c-0.5378151,0-1,0.4412556-1,1v1.829834    c0,0.5950832,0.4876671,1,1,1C57.8796463,28.1833267,58.355957,27.7675304,58.355957,27.1833267z"/><path d="M63.6259766,44.3034439c0.5500488,0,1-0.4499512,1-1v-1.8300781c0-0.5498047-0.4499512-1-1-1s-1,0.4501953-1,1v1.8300781    C62.6259766,43.8534927,63.0759277,44.3034439,63.6259766,44.3034439z"/><path d="M60.4858398,44.3034439c0.5600586,0,1-0.4499512,1-1v-1.8300781c0-0.5498047-0.4399414-1-1-1    c-0.5498047,0-1,0.4501953-1,1v1.8300781C59.4858398,43.8534927,59.9360352,44.3034439,60.4858398,44.3034439z"/><path d="M57.355957,40.4733658c-0.5220985,0-1,0.4229889-1,1c0,0.2702179,0,1.9327621,0,1.8300781c0,0.5643539,0.4670982,1,1,1    c0.5809898,0,1-0.4797554,1-1v-1.8300781C58.355957,40.9235611,57.9060059,40.4733658,57.355957,40.4733658z"/><path d="M28.2705078,19.0573502c0.1040039,0.0187988,1.0263672,0.21875,1.4025879,1.5090332    c0.1268616,0.4236259,0.5359745,0.7609863,1.0144043,0.7658691c0.0029297,0,0.0053711,0.0009766,0.0080566,0.0009766    c0.0002441,0,0.0002441,0,0.0004883,0s0.0002441,0,0.0004883,0c0.0026855,0,0.005127-0.0009766,0.0080566-0.0009766    c0.4954529-0.0050564,0.8999405-0.3766899,1.0144043-0.7658691c0.3730469-1.2800293,1.282959-1.4870605,1.4001465-1.5083008    c0.5732422-0.0869141,0.9733887-0.6176758,0.8962402-1.1950684c-0.0778809-0.583252-0.6196289-0.9943848-1.1970215-0.9147949    c-0.5512695,0.0739746-1.4074707,0.4074707-2.1223145,1.1765137c-0.7148438-0.769043-1.5710449-1.1025391-2.1223145-1.1765137    c-0.5681152-0.0759277-1.092041,0.3215332-1.1813965,0.8937988C27.3032227,18.4142838,27.699707,18.9555435,28.2705078,19.0573502    z"/><path d="M36.8479004,13.8171158c0.1135254,0.0219727,0.6940918,0.1765137,0.9484863,1.0490723    c0.1159019,0.3940659,0.5197144,0.7595749,1.0144043,0.7658691c0.0026855,0,0.005127,0.0009766,0.0080566,0.0009766    c0,0,0,0,0.0004883,0c0,0,0,0,0.0004883,0c0.0026855,0,0.005127-0.0009766,0.0078125-0.0009766    c0.5038948-0.0064116,0.8982353-0.3709011,1.0144043-0.7658691c0.2512207-0.862793,0.8215332-1.0229492,0.9448242-1.0478516    c0.5708008-0.0895996,0.9682617-0.6191406,0.8913574-1.1945801c-0.0786133-0.583252-0.6149902-0.9892578-1.1972656-0.9147949    c-0.4335938,0.0578613-1.0852051,0.310791-1.6616211,0.8547363c-0.5761719-0.5439453-1.2280273-0.796875-1.6608887-0.8547363    c-0.5754395-0.0737305-1.0827637,0.3186035-1.1757813,0.8864746    C35.8896484,13.164772,36.2822266,13.7067642,36.8479004,13.8171158z"/><path d="M37.5314941,20.1781998c-0.567627-0.0749512-1.092041,0.3215332-1.1813965,0.8937988    c-0.0891113,0.5722656,0.307373,1.1135254,0.8781738,1.215332c0.1040039,0.0187988,1.0263672,0.21875,1.4025879,1.5087891    c0.110527,0.3710575,0.487648,0.7594109,1.0144043,0.7661133c0.0026855,0,0.005127,0.0009766,0.0080566,0.0009766    c0.0002441,0,0.0002441,0,0.0004883,0s0.0002441,0,0.0004883,0c0.0026855,0,0.005127-0.0009766,0.0078125-0.0009766    c0.4962692-0.0063133,0.9012947-0.3786564,1.0146484-0.7661133c0.3730469-1.2797852,1.282959-1.4868164,1.3999023-1.5083008    c0.5734863-0.0869141,0.9736328-0.6174316,0.8964844-1.1948242c-0.078125-0.5834961-0.6186523-0.9916992-1.1972656-0.9147949    c-0.5510254,0.0739746-1.4072266,0.4074707-2.1220703,1.1762695    C38.9389648,20.5856705,38.0825195,20.2521744,37.5314941,20.1781998z"/></g></g></svg>