<svg width="61" height="60" viewBox="0 0 61 60" fill="none" xmlns="http://www.w3.org/2000/svg">
<g clip-path="url(#clip0_4141_8491)">
<mask id="mask0_4141_8491" style="mask-type:luminance" maskUnits="userSpaceOnUse" x="0" y="0" width="61" height="60">
<path d="M0.5 3.8147e-06H60.5V60H0.5V3.8147e-06Z" fill="white"/>
</mask>
<g mask="url(#mask0_4141_8491)">
<path d="M34.9801 55.575V59.1211H26.02V50.1609C26.02 47.6859 28.0262 45.6807 30.5 45.6807C32.9739 45.6807 34.9801 47.6859 34.9801 50.1609V51.7441" stroke="black" stroke-width="1.75781" stroke-miterlimit="10" stroke-linecap="round" stroke-linejoin="round"/>
<path d="M16.8242 45.6808H10.3391H5.85901V41.2008H55.141V45.6808H50.661H20.6551" stroke="black" stroke-width="1.75781" stroke-miterlimit="10" stroke-linecap="round" stroke-linejoin="round"/>
<path d="M20.6551 45.6807H50.661V59.121H10.3391V45.6807H16.8243" stroke="black" stroke-width="1.75781" stroke-miterlimit="10" stroke-linecap="round" stroke-linejoin="round"/>
<path d="M19.2998 50.1603V54.6404" stroke="black" stroke-width="1.75781" stroke-miterlimit="10" stroke-linecap="round" stroke-linejoin="round"/>
<path d="M14.8197 50.1603V54.6404" stroke="black" stroke-width="1.75781" stroke-miterlimit="10" stroke-linecap="round" stroke-linejoin="round"/>
<path d="M41.5115 50.1603V54.6404" stroke="black" stroke-width="1.75781" stroke-miterlimit="10" stroke-linecap="round" stroke-linejoin="round"/>
<path d="M46.1803 50.1603V54.6404" stroke="black" stroke-width="1.75781" stroke-miterlimit="10" stroke-linecap="round" stroke-linejoin="round"/>
<path d="M19.2998 41.2002L23.7799 9.83965H37.2201L41.7002 41.2002H19.2998Z" stroke="black" stroke-width="1.75781" stroke-miterlimit="10" stroke-linecap="round" stroke-linejoin="round"/>
<path d="M20.5798 32.24H40.4203" stroke="black" stroke-width="1.75781" stroke-miterlimit="10" stroke-linecap="round" stroke-linejoin="round"/>
<path d="M21.8599 23.2799H39.1402" stroke="black" stroke-width="1.75781" stroke-miterlimit="10" stroke-linecap="round" stroke-linejoin="round"/>
<path d="M37.8606 14.3192H34.6871" stroke="black" stroke-width="1.75781" stroke-miterlimit="10" stroke-linecap="round" stroke-linejoin="round"/>
<path d="M30.8574 14.3192H23.1395" stroke="black" stroke-width="1.75781" stroke-miterlimit="10" stroke-linecap="round" stroke-linejoin="round"/>
<path d="M34.9801 9.8396H26.02L28.26 0.879444H32.7401L34.9801 9.8396Z" stroke="black" stroke-width="1.75781" stroke-miterlimit="10" stroke-linecap="round" stroke-linejoin="round"/>
<path d="M30.5 17.6325V19.9669" stroke="black" stroke-width="1.75781" stroke-miterlimit="10" stroke-linecap="round" stroke-linejoin="round"/>
<path d="M30.5 26.5927V28.9271" stroke="black" stroke-width="1.75781" stroke-miterlimit="10" stroke-linecap="round" stroke-linejoin="round"/>
<path d="M30.5 35.5528V37.8873" stroke="black" stroke-width="1.75781" stroke-miterlimit="10" stroke-linecap="round" stroke-linejoin="round"/>
<path d="M12.5796 23.2799H17.0597L19.2998 41.2002H10.3396L12.5796 23.2799Z" stroke="black" stroke-width="1.75781" stroke-miterlimit="10" stroke-linecap="round" stroke-linejoin="round"/>
<path d="M14.8197 18.7997V23.2798" stroke="black" stroke-width="1.75781" stroke-miterlimit="10" stroke-linecap="round" stroke-linejoin="round"/>
<path d="M12.0197 27.7599H17.6198" stroke="black" stroke-width="1.75781" stroke-miterlimit="10" stroke-linecap="round" stroke-linejoin="round"/>
<path d="M11.4597 32.24H18.1798" stroke="black" stroke-width="1.75781" stroke-miterlimit="10" stroke-linecap="round" stroke-linejoin="round"/>
<path d="M10.8996 36.7201H18.7398" stroke="black" stroke-width="1.75781" stroke-miterlimit="10" stroke-linecap="round" stroke-linejoin="round"/>
<path d="M43.9403 23.2799H48.4204L50.6604 41.2002H41.7003L43.9403 23.2799Z" stroke="black" stroke-width="1.75781" stroke-miterlimit="10" stroke-linecap="round" stroke-linejoin="round"/>
<path d="M46.1803 18.7997V23.2798" stroke="black" stroke-width="1.75781" stroke-miterlimit="10" stroke-linecap="round" stroke-linejoin="round"/>
<path d="M43.3803 27.7599H48.9805" stroke="black" stroke-width="1.75781" stroke-miterlimit="10" stroke-linecap="round" stroke-linejoin="round"/>
<path d="M42.8203 32.24H49.5404" stroke="black" stroke-width="1.75781" stroke-miterlimit="10" stroke-linecap="round" stroke-linejoin="round"/>
<path d="M42.2603 36.7201H50.1003" stroke="black" stroke-width="1.75781" stroke-miterlimit="10" stroke-linecap="round" stroke-linejoin="round"/>
</g>
</g>
<defs>
<clipPath id="clip0_4141_8491">
<rect width="60" height="60" fill="white" transform="translate(0.5)"/>
</clipPath>
</defs>
</svg>
